HIERARCHY
ROOT Hips
{
  OFFSET 0 0 0
  CHANNELS 6 Xposition Yposition Zposition Zrotation Yrotation Xrotation
  JOINT LeftThigh
  {
    OFFSET 8.409438 0 -5.917753
    CHANNELS 3 Zrotation Yrotation Xrotation
    JOINT LeftLeg
    {
      OFFSET 0 0 -42.358652
      CHANNELS 3 Zrotation Yrotation Xrotation
      JOINT LeftFoot
      {
        OFFSET 0 0 -39.357303
        CHANNELS 3 Zrotation Yrotation Xrotation
      }
    }
  }
  JOINT RightThigh
  {
    OFFSET -8.409438 0 -5.917753
    CHANNELS 3 Zrotation Yrotation Xrotation
    JOINT RightLeg
    {
      OFFSET 0 0 -42.358652
      CHANNELS 3 Zrotation Yrotation Xrotation
      JOINT RightFoot
      {
        OFFSET 0 0 -39.357303
        CHANNELS 3 Zrotation Yrotation Xrotation
      }
    }
  }
  JOINT SpineLow
  {
    OFFSET 0 0 4.719101
    CHANNELS 3 Zrotation Yrotation Xrotation
    JOINT SpineMid
    {
      OFFSET 0 0 12.899191
      CHANNELS 3 Zrotation Yrotation Xrotation
      JOINT Chest
      {
        OFFSET 0 0 12.899191
        CHANNELS 3 Zrotation Yrotation Xrotation
        JOINT LeftShoulder
        {
          OFFSET 7.550562 1.41573 9.438202
          CHANNELS 3 Zrotation Yrotation Xrotation
          JOINT LeftArm
          {
            OFFSET 9.155056 0 4.247191
            CHANNELS 3 Zrotation Yrotation Xrotation
            JOINT LeftForearm
            {
              OFFSET 0 0 25.771955
              CHANNELS 3 Zrotation Yrotation Xrotation
              JOINT LeftHand
              {
                OFFSET 0 0 25.197169
                CHANNELS 3 Zrotation Yrotation Xrotation
              }
            }
          }
        }
        JOINT RightShoulder
        {
          OFFSET -7.550562 1.41573 9.438202
          CHANNELS 3 Zrotation Yrotation Xrotation
          JOINT RightArm
          {
            OFFSET -9.155056 0 4.247191
            CHANNELS 3 Zrotation Yrotation Xrotation
            JOINT RightForearm
            {
              OFFSET 0 0 -25.771955
              CHANNELS 3 Zrotation Yrotation Xrotation
              JOINT RightHand
              {
                OFFSET 0 0 -25.197169
                CHANNELS 3 Zrotation Yrotation Xrotation
              }
            }
          }
        }
        JOINT Neck
        {
          OFFSET 0 0 15.101124
          CHANNELS 3 Zrotation Yrotation Xrotation
          JOINT Head
          {
            OFFSET 0 0 11.325843
            CHANNELS 3 Zrotation Yrotation Xrotation
            End Site
            {
              OFFSET 0 0 14.157303
            }
          }
        }
      }
    }
  }
}
MOTION
Frames: 16
Frame Time: 0.01
0.0  101.685394  0.0  -0.946298  -0.838952  -103.707553  24.626857  -20.971052  8.124083  -5.86456  3.945023  21.922479  6.245253  2.982566  4.297619  -17.503798  15.710941  -3.823563  9.133709  -1.39754  22.339968  7.244822  4.527372  -0.712521  1.771709  -0.162341  1.445268  4.831203  -0.549098  3.936252  4.831203  -0.549098  3.936252  -15.619009  8.473937  13.019062  -145.916588  85.828326  -81.803701  -28.368346  26.843944  107.589203  92.395972  39.148011  -6.762352  10.775301  -20.731259  18.139022  93.561234  41.754578  22.653325  -29.336044  -2.846275  -88.408796  58.763759  8.119023  26.316505  2.023599  -2.422748  0.191308  1.518232  -1.816451  0.151488  
0.0  101.685394  0.0  -0.714664  -3.52636  -103.337408  25.724005  -20.479086  8.921826  -4.818072  3.380194  20.526399  8.32047  2.878338  5.188737  -16.762699  15.590477  -3.360251  9.85046  -1.086697  20.217701  7.744091  3.976415  -0.650708  1.616827  -0.209089  1.286232  4.407011  -0.65699  3.500111  4.407011  -0.65699  3.500111  -13.927729  6.159371  11.662932  -102.319143  86.250219  -40.508787  -33.045543  13.591978  106.165074  100.220174  33.559427  3.705164  9.167457  -19.899968  19.826831  92.440592  37.30225  24.365895  -29.12487  -10.049883  -91.738749  57.338652  11.179245  27.963963  2.947907  -2.27527  0.553206  2.212702  -1.703833  0.425842  
0.0  101.685394  0.0  -0.536607  -5.675275  -102.883266  26.856122  -20.2409  9.391092  -3.936588  3.164804  19.296146  8.669928  2.792567  5.263824  -15.850882  15.366358  -3.016855  10.197927  -0.663954  18.463284  8.318844  3.484861  -0.690753  1.480022  -0.242693  1.166294  4.032859  -0.73426  3.171846  4.032859  -0.73426  3.171846  -12.667845  3.698903  10.038814  -64.253092  84.873147  -4.702592  -36.627494  -0.43112  105.638954  105.591181  28.63293  5.273336  7.503062  -19.001958  20.795846  90.29707  32.889782  26.173907  -27.455932  -16.497519  -97.85962  60.205873  13.922931  30.219381  3.680965  -2.321069  0.632562  2.762753  -1.73707  0.488365  
0.0  101.685394  0.0  -0.470838  -7.143773  -102.418814  27.918251  -20.23304  9.575819  -3.233128  3.087142  18.322905  8.757122  2.767176  5.37405  -14.681933  15.007907  -2.612514  10.189857  -0.276914  17.049766  8.545941  3.105115  -0.828689  0.675528  -0.410908  1.314068  1.823709  -1.159393  3.580411  1.823709  -1.159393  3.580411  -7.627908  2.333188  6.10823  -48.97399  82.313648  8.07164  -38.910311  -13.793226  104.061112  107.862873  30.832216  2.181315  11.492963  -17.649399  19.714495  86.586872  28.525888  29.046185  -26.787012  -18.571725  -101.638368  63.829356  16.652489  31.683364  6.411896  -1.661614  -0.244674  4.80792  -1.24894  -0.166076  
0.0  101.685394  0.0  -0.60248  -7.888952  -102.153076  28.895489  -20.677978  9.558465  -2.912049  3.150258  17.72304  8.415589  2.825448  5.419941  -13.157388  14.567183  -1.822787  9.719624  -0.147168  15.846192  8.205755  2.983943  -0.978236  -0.275664  -0.568513  1.392286  -0.78607  -1.53749  3.812734  -0.78607  -1.53749  3.812734  -2.269564  0.704017  3.683845  -44.927725  79.866834  10.562034  -38.821514  -29.882785  100.605621  107.65971  32.977237  -3.902484  16.234526  -17.006121  19.51963  82.624433  24.523862  32.539355  -29.715266  -18.762152  -100.827874  63.368821  20.34243  29.943699  9.216532  -1.238653  -0.850699  6.910422  -0.942076  -0.619482  
0.0  101.685394  0.0  -1.073867  -8.198255  -101.924779  30.138176  -21.694733  9.091659  -3.300526  3.445438  17.435347  7.880253  2.948539  5.380058  -11.342635  13.83489  -0.789996  8.673097  -0.186881  14.790164  7.679512  3.098106  -1.058752  -0.996087  -0.656837  1.551625  -2.764136  -1.730301  4.268342  -2.764136  -1.7303  4.268341  1.22292  -2.151589  1.779272  -43.32027  77.831697  10.15535  -30.246641  -44.996931  91.04354  102.246459  31.541055  -15.761131  19.195517  -16.496008  19.152957  78.914932  20.970673  35.423329  -36.624793  -20.148918  -103.128245  60.124253  16.743214  26.423253  11.090067  -1.211834  -1.772651  8.31381  -0.941424  -1.307952  
0.0  101.685394  0.0  -1.619159  -8.342403  -101.526405  31.596572  -22.725593  8.121884  -4.346689  3.989872  17.461058  7.839893  3.028242  5.410109  -9.380166  12.920328  -0.012782  7.280617  -0.093335  14.167213  7.244996  3.184094  -1.254833  -0.997514  -0.60285  1.988383  -2.774516  -1.564247  5.459795  -2.774516  -1.564247  5.459794  0.125235  -5.94656  -2.88726  -35.672542  76.464051  15.569928  -18.453674  -51.569088  76.80143  104.146109  25.783948  -18.71767  18.541031  -16.612886  16.026068  74.615464  18.013634  37.612327  -34.628763  -17.598513  -104.999033  54.816958  19.473258  28.300052  10.502497  -1.725555  -3.71791  7.866128  -1.358598  -2.759524  
0.0  101.685394  0.0  -2.120476  -6.9485  -100.993695  31.50596  -23.213737  6.939223  -5.647273  4.635909  17.774835  8.209762  2.980801  5.552117  -9.068092  12.254505  0.172603  6.109118  0.237658  13.97905  6.837718  3.003876  -1.427826  -0.67009  -0.548392  1.415116  -1.863266  -1.459047  3.883516  -1.863266  -1.459047  3.883516  -5.02798  -8.519052  -0.885969  -32.400386  73.710152  17.678684  -5.845362  -52.11548  63.871298  110.146112  20.901236  -14.011969  11.933067  -17.514379  19.694241  70.642662  15.99229  38.483744  -34.056147  -20.928181  -106.976414  54.698784  20.057933  26.905049  7.648811  -3.006749  -1.879225  5.726105  -2.279024  -1.371685  
0.0  101.685394  0.0  -2.347362  -6.153912  -101.407661  31.517089  -23.795748  6.48685  -6.780806  5.21605  18.356776  8.765575  2.823876  5.822013  -8.472633  12.063019  0.879973  5.397479  0.426912  13.945066  6.58407  2.729862  -1.399659  -1.152326  -0.553314  1.34473  -3.179883  -1.447437  3.701637  -3.179883  -1.447437  3.701637  -4.681953  -9.299926  -0.042281  -29.561418  69.661957  19.541831  10.341153  -49.177868  47.982527  108.097356  16.089009  -14.705056  11.885593  -16.049852  21.317499  67.50711  13.540367  38.785944  -32.657553  -25.283162  -109.017977  58.11208  20.485361  24.885877  8.311198  -3.277022  -0.903601  6.226866  -2.470599  -0.633041  
0.0  101.685394  0.0  -2.673706  -4.934852  -101.840625  30.874201  -24.130065  6.046128  -7.304678  5.450975  19.141797  8.995679  2.703936  6.054356  -8.955724  12.106544  1.460307  5.18943  0.381158  13.955287  6.445258  2.515096  -1.298116  -1.875993  -0.808495  1.382197  -5.173739  -2.100392  3.839387  -5.17374  -2.100392  3.839387  -3.427678  -8.297981  0.179525  -20.174695  63.163398  26.35979  15.679575  -40.327886  40.182944  103.391428  14.891365  -17.679582  13.18423  -12.897537  21.78881  65.335842  10.148284  39.333692  -31.976382  -27.340351  -110.43402  60.45116  21.089328  22.052804  9.792659  -2.323104  -0.216914  7.342664  -1.746335  -0.125454  
0.0  101.685394  0.0  -3.04629  -3.650719  -102.140991  30.150298  -24.308141  5.580561  -7.310707  5.284417  20.002045  8.649502  2.738624  6.135569  -10.156628  12.142143  1.823826  5.533529  0.292706  14.033958  6.285594  2.430835  -1.219377  -2.224606  -1.055849  1.524947  -6.147821  -2.741685  4.263615  -6.147821  -2.741685  4.263615  -3.956411  -8.116285  -0.096726  -12.991402  58.214315  31.145327  12.356751  -32.927294  37.835043  102.965623  12.819493  -19.322339  11.813256  -10.070522  22.34764  64.480895  7.669607  39.257404  -31.813636  -25.818345  -113.003741  60.651675  20.772308  20.93343  10.166763  -1.232587  -0.329083  7.624117  -0.930221  -0.226366  
0.0  101.685394  0.0  -3.407202  -2.501956  -102.303438  29.748916  -24.455816  5.115462  -7.281462  4.92812  20.719596  8.134039  2.896335  6.170854  -10.159817  11.53041  2.637801  4.588296  0.819037  13.830543  6.626778  2.371608  -1.067323  -2.561061  -1.22292  1.696199  -7.087247  -3.156943  4.76326  -7.087247  -3.156943  4.76326  -3.861419  -8.571372  -0.195643  -8.974767  55.983669  33.180411  8.477455  -29.739059  36.483962  107.237797  10.67156  -17.95833  10.140168  -7.896719  23.332046  64.603946  5.957395  38.398978  -30.532786  -20.898247  -113.649487  59.316701  23.156332  21.743683  10.8568  -0.205057  -0.798392  8.14234  -0.168041  -0.595374  
0.0  101.685394  0.0  -3.630807  -1.580294  -102.671356  29.701961  -24.710488  5.020729  -7.522722  4.654215  21.094273  7.464309  2.992019  6.089334  -12.038221  11.672838  2.727102  5.516911  0.873222  14.035788  6.709553  2.448088  -1.004023  -2.878813  -1.241767  1.852039  -7.964427  -3.166072  5.205583  -7.964427  -3.166072  5.205583  -3.024873  -9.571745  0.224622  -8.010996  54.960139  32.83564  8.301034  -28.145156  33.947835  107.294514  9.538452  -18.175423  9.000034  -6.852157  24.089444  64.849473  3.861224  37.264197  -31.343001  -19.118202  -114.074919  59.165611  23.312557  20.870919  11.812595  0.491276  -1.203833  8.860401  0.345339  -0.912771  
0.0  101.685394  0.0  -2.926243  -0.83161  -102.31368  30.218859  -23.938932  4.872321  -6.565367  4.058378  22.095232  6.231482  3.087363  5.691394  -13.742836  12.451416  1.838531  6.264003  0.999676  14.314755  6.942627  2.546769  -0.999012  -3.070619  -1.19343  1.78443  -8.481576  -3.027623  5.023237  -8.481575  -3.027622  5.023237  -2.324024  -9.391436  1.544828  -10.763321  54.683817  29.674559  7.702171  -28.115709  32.87261  105.806057  9.44205  -18.786859  7.714248  -5.747598  24.823527  65.280412  1.407957  35.979242  -30.88542  -17.306024  -115.091491  59.75093  24.441659  22.07818  12.515557  1.281903  -1.285887  9.389021  0.935559  -0.991129  
0.0  101.685394  0.0  -2.505433  -1.95064  -102.626635  32.212997  -24.174721  5.211828  -7.466898  4.251544  21.721242  6.2237  3.032229  5.671878  -13.503246  12.754836  1.740066  6.91333  1.09598  14.590314  7.219561  2.638489  -1.002084  -2.998334  -1.197829  1.905041  -8.289579  -3.03  5.349958  -8.289578  -3.03  5.349958  -1.29321  -8.322843  1.865839  -15.661314  53.552204  24.626001  5.7692  -28.159302  34.675603  106.287889  9.269038  -18.361935  6.84036  -4.745762  25.069593  65.742387  -0.800377  34.45259  -29.451799  -16.671787  -115.689731  61.958716  25.911926  23.688509  13.120461  1.917296  -1.40725  9.843901  1.408535  -1.097125  
0.0  101.685394  0.0  -1.998874  -4.497842  -102.991808  35.299727  -24.614211  5.746718  -8.38025  4.439265  21.121381  6.605982  3.066134  5.676562  -11.582545  12.829384  1.703397  7.374153  1.100631  14.882832  7.445178  2.773889  -0.979251  -2.648132  -1.123284  2.070429  -7.332666  -2.836997  5.777773  -7.332665  -2.836997  5.777772  -0.574253  -7.759038  1.676596  -20.210615  53.435665  20.731704  5.477019  -29.910849  36.03067  107.052116  8.868765  -17.681157  5.926904  -4.466322  24.684181  65.762718  -2.52258  33.096881  -27.715666  -17.62076  -116.713196  65.352556  26.049685  24.827348  13.341156  1.999057  -1.499896  10.009826  1.467386  -1.169135  
